<?xml version="1.0" encoding="utf-8" standalone="no"?>
<!DOCTYPE svg PUBLIC "-//W3C//DTD SVG 1.1//EN"
  "http://www.w3.org/Graphics/SVG/1.1/DTD/svg11.dtd">
<svg xmlns:xlink="http://www.w3.org/1999/xlink" width="374.04pt" height="371.664pt" viewBox="0 0 374.04 371.664" xmlns="http://www.w3.org/2000/svg" version="1.1">
 <metadata>
  <rdf:RDF xmlns:dc="http://purl.org/dc/elements/1.1/" xmlns:cc="http://creativecommons.org/ns#" xmlns:rdf="http://www.w3.org/1999/02/22-rdf-syntax-ns#">
   <cc:Work>
    <dc:type rdf:resource="http://purl.org/dc/dcmitype/StillImage"/>
    <dc:date>2026-09-07T14:20:27.683241</dc:date>
    <dc:format>image/svg+xml</dc:format>
    <dc:creator>
     <cc:Agent>
      <dc:title>Matplotlib v3.11.1, https://matplotlib.org/</dc:title>
     </cc:Agent>
    </dc:creator>
   </cc:Work>
  </rdf:RDF>
 </metadata>
 <defs>
  <style type="text/css">*{stroke-linejoin: round; stroke-linecap: butt}</style>
 </defs>
 <g id="figure_1">
  <g id="patch_1">
   <path d="M 0 371.664 
L 374.04 371.664 
L 374.04 0 
L 0 0 
z
" style="fill: #ffffff"/>
  </g>
  <g id="axes_1">
   <g id="patch_2">
    <path d="M 2.88 169.2 
L 371.16 169.2 
L 371.16 119.576656 
L 2.88 119.576656 
z
" clip-path="url(#p6e1d85b4a4)" style="fill: #f6f6f6"/>
   </g>
   <g id="line2d_1">
    <path d="M 13.9284 81.268525 
L 135.4608 81.268525 
" clip-path="url(#p6e1d85b4a4)" style="fill: none; stroke-dasharray: 7.7,2.1,1.12,2.1; stroke-dashoffset: 0; stroke: #404040; stroke-width: 0.7"/>
   </g>
   <g id="line2d_2">
    <path d="M 194.3856 66.954098 
L 334.332 66.954098 
" clip-path="url(#p6e1d85b4a4)" style="fill: none; stroke-dasharray: 7.7,2.1,1.12,2.1; stroke-dashoffset: 0; stroke: #404040; stroke-width: 0.7"/>
   </g>
   <g id="line2d_3">
    <path d="M 148.71888 135.390689 
L 148.71888 114.668852 
" clip-path="url(#p6e1d85b4a4)" style="fill: none; stroke-dasharray: 3.33,1.44; stroke-dashoffset: 0; stroke: #a6350f; stroke-width: 0.9"/>
   </g>
   <g id="line2d_4">
    <path d="M 192.17592 135.390689 
L 192.17592 114.668852 
" clip-path="url(#p6e1d85b4a4)" style="fill: none; stroke-dasharray: 3.33,1.44; stroke-dashoffset: 0; stroke: #a6350f; stroke-width: 0.9"/>
   </g>
   <g id="line2d_5">
    <path d="M 2.88 119.576656 
L 371.16 119.576656 
" clip-path="url(#p6e1d85b4a4)" style="fill: none; stroke: #808080; stroke-linecap: square"/>
   </g>
   <g id="text_1">
    <text style="font-weight: 700; font-size: 9.4px; font-family: 'Times New Roman', 'DejaVu Serif', serif; text-anchor: start; fill: #1a1a1a" x="6.5628" y="10.787016" transform="rotate(-0 6.5628 10.787016)">(a)   Geared train,  axial section</text>
   </g>
   <g id="patch_3">
    <path d="M 25.71336 77.178689 
L 25.71336 57.820131 
L 108.20808 57.820131 
L 108.20808 77.178689 
L 99.36936 77.178689 
L 99.36936 61.092 
L 34.55208 61.092 
L 34.55208 77.178689 
z
" clip-path="url(#p6e1d85b4a4)" style="fill: url(#h943d0ae6f2); stroke: #1a1a1a; stroke-width: 1.1; stroke-linejoin: miter"/>
   </g>
   <g id="patch_4">
    <path d="M 25.71336 85.358361 
L 25.71336 104.716918 
L 108.20808 104.716918 
L 108.20808 85.358361 
L 99.36936 85.358361 
L 99.36936 101.445049 
L 34.55208 101.445049 
L 34.55208 85.358361 
z
" clip-path="url(#p6e1d85b4a4)" style="fill: url(#h943d0ae6f2); stroke: #1a1a1a; stroke-width: 1.1; stroke-linejoin: miter"/>
   </g>
   <g id="patch_5">
    <path d="M 222.37488 62.864262 
L 222.37488 46.504918 
L 291.61152 46.504918 
L 291.61152 62.864262 
L 282.7728 62.864262 
L 282.7728 49.776787 
L 231.2136 49.776787 
L 231.2136 62.864262 
z
" clip-path="url(#p6e1d85b4a4)" style="fill: url(#h943d0ae6f2); stroke: #1a1a1a; stroke-width: 1.1; stroke-linejoin: miter"/>
   </g>
   <g id="patch_6">
    <path d="M 222.37488 71.043934 
L 222.37488 87.403279 
L 291.61152 87.403279 
L 291.61152 71.043934 
L 282.7728 71.043934 
L 282.7728 84.13141 
L 231.2136 84.13141 
L 231.2136 71.043934 
z
" clip-path="url(#p6e1d85b4a4)" style="fill: url(#h943d0ae6f2); stroke: #1a1a1a; stroke-width: 1.1; stroke-linejoin: miter"/>
   </g>
   <g id="patch_7">
    <path d="M 21.294 114.668852 
L 332.4906 114.668852 
L 332.4906 110.033705 
L 21.294 110.033705 
z
" clip-path="url(#p6e1d85b4a4)" style="fill: #dedede; stroke: #1a1a1a; stroke-linejoin: miter"/>
   </g>
   <g id="text_2">
    <text style="font-style: italic; font-size: 6.4px; font-family: 'Times New Roman', 'DejaVu Serif', serif; text-anchor: start; fill: #737373" x="7.29936" y="123.393836" transform="rotate(-0 7.29936 123.393836)">machine floor</text>
   </g>
   <g id="text_3">
    <text style="font-style: italic; font-size: 6.4px; font-family: 'Times New Roman', 'DejaVu Serif', serif; text-anchor: start; fill: #a6350f" x="222.37488" y="128.529492" transform="rotate(-0 222.37488 128.529492)">oil feed and return</text>
   </g>
   <g id="text_4">
    <text style="font-size: 6.9px; font-family: 'Times New Roman', 'DejaVu Serif', serif; text-anchor: start; fill: #a6350f" x="7.29936" y="162.656262" transform="rotate(-0 7.29936 162.656262)">2–5 % gear loss  ·  seals and oil changes  ·  a second storey below the floor</text>
   </g>
   <g id="text_5">
    <text style="font-style: italic; font-size: 6.4px; font-family: 'Times New Roman', 'DejaVu Serif', serif; text-anchor: start; fill: #737373" x="7.29936" y="156.657836" transform="rotate(-0 7.29936 156.657836)">the gearbox casing is sealed; its input and output shafts leave at different heights</text>
   </g>
   <g id="patch_8">
    <path d="M 132.51456 106.216525 
L 132.51456 42.142426 
L 200.27808 42.142426 
L 200.27808 106.216525 
L 132.51456 106.216525 
z
" clip-path="url(#p6e1d85b4a4)" style="fill: none; stroke: #1a1a1a; stroke-width: 1.2; stroke-linejoin: miter"/>
   </g>
   <g id="patch_9">
    <path d="M 132.51456 106.216525 
L 132.51456 42.142426 
L 141.35328 42.142426 
L 141.35328 106.216525 
z
" clip-path="url(#p6e1d85b4a4)" style="fill: url(#hbbb8569fb5); stroke: #1a1a1a; stroke-width: 1.1; stroke-linejoin: miter"/>
   </g>
   <g id="patch_10">
    <path d="M 191.43936 106.216525 
L 191.43936 42.142426 
L 200.27808 42.142426 
L 200.27808 106.216525 
z
" clip-path="url(#p6e1d85b4a4)" style="fill: url(#hbbb8569fb5); stroke: #1a1a1a; stroke-width: 1.1; stroke-linejoin: miter"/>
   </g>
   <g id="patch_11">
    <path d="M 132.51456 45.414295 
L 132.51456 42.142426 
L 200.27808 42.142426 
L 200.27808 45.414295 
z
" clip-path="url(#p6e1d85b4a4)" style="fill: url(#hbbb8569fb5); stroke: #1a1a1a; stroke-width: 1.1; stroke-linejoin: miter"/>
   </g>
   <g id="patch_12">
    <path d="M 132.51456 106.216525 
L 132.51456 102.944656 
L 200.27808 102.944656 
L 200.27808 106.216525 
z
" clip-path="url(#p6e1d85b4a4)" style="fill: url(#hbbb8569fb5); stroke: #1a1a1a; stroke-width: 1.1; stroke-linejoin: miter"/>
   </g>
   <g id="patch_13">
    <path d="M 128.0952 151.477377 
L 212.7996 151.477377 
L 212.7996 135.390689 
L 128.0952 135.390689 
z
" clip-path="url(#p6e1d85b4a4)" style="fill: #f4e6d8; stroke: #1a1a1a; stroke-linejoin: miter"/>
   </g>
   <g id="patch_14">
    <path d="M 13.19184 81.268525 
L 132.51456 81.268525 
L 132.51456 79.087279 
L 13.19184 79.087279 
z
" clip-path="url(#p6e1d85b4a4)" style="fill: #cccccc; stroke: #1a1a1a; stroke-width: 1.1; stroke-linejoin: miter"/>
   </g>
   <g id="patch_15">
    <path d="M 13.19184 83.44977 
L 132.51456 83.44977 
L 132.51456 81.268525 
L 13.19184 81.268525 
z
" clip-path="url(#p6e1d85b4a4)" style="fill: #cccccc; stroke: #1a1a1a; stroke-width: 1.1; stroke-linejoin: miter"/>
   </g>
   <g id="patch_16">
    <path d="M 44.12736 77.724 
L 88.32096 77.724 
L 88.32096 70.907607 
L 44.12736 70.907607 
z
" clip-path="url(#p6e1d85b4a4)" style="fill: #dbdbdb; stroke: #1a1a1a; stroke-width: 1.1; stroke-linejoin: miter"/>
   </g>
   <g id="patch_17">
    <path d="M 44.12736 91.629443 
L 88.32096 91.629443 
L 88.32096 84.813049 
L 44.12736 84.813049 
z
" clip-path="url(#p6e1d85b4a4)" style="fill: #dbdbdb; stroke: #1a1a1a; stroke-width: 1.1; stroke-linejoin: miter"/>
   </g>
   <g id="patch_18">
    <path d="M 41.91768 69.544328 
L 90.53064 69.544328 
L 90.53064 61.364656 
L 41.91768 61.364656 
z
" clip-path="url(#p6e1d85b4a4)" style="fill: url(#h2ff06d6fd0); stroke: #1a1a1a; stroke-width: 1.1; stroke-linejoin: miter"/>
   </g>
   <g id="patch_19">
    <path d="M 41.91768 101.172393 
L 90.53064 101.172393 
L 90.53064 92.992721 
L 41.91768 92.992721 
z
" clip-path="url(#p6e1d85b4a4)" style="fill: url(#h2ff06d6fd0); stroke: #1a1a1a; stroke-width: 1.1; stroke-linejoin: miter"/>
   </g>
   <g id="patch_20">
    <path d="M 34.55208 68.726361 
L 39.708 68.726361 
Q 42.65424 68.726361 42.65424 67.635738 
L 42.65424 63.00059 
Q 42.65424 61.909967 39.708 61.909967 
L 34.55208 61.909967 
Q 31.60584 61.909967 31.60584 63.00059 
L 31.60584 67.635738 
Q 31.60584 68.726361 34.55208 68.726361 
z
" clip-path="url(#p6e1d85b4a4)" style="fill: #c9a227; stroke: #1a1a1a; stroke-width: 0.8; stroke-linejoin: miter"/>
   </g>
   <g id="patch_21">
    <path d="M 34.55208 100.627082 
L 39.708 100.627082 
Q 42.65424 100.627082 42.65424 99.536459 
L 42.65424 94.901311 
Q 42.65424 93.810689 39.708 93.810689 
L 34.55208 93.810689 
Q 31.60584 93.810689 31.60584 94.901311 
L 31.60584 99.536459 
Q 31.60584 100.627082 34.55208 100.627082 
z
" clip-path="url(#p6e1d85b4a4)" style="fill: #c9a227; stroke: #1a1a1a; stroke-width: 0.8; stroke-linejoin: miter"/>
   </g>
   <g id="patch_22">
    <path d="M 92.74032 68.726361 
L 97.89624 68.726361 
Q 100.84248 68.726361 100.84248 67.635738 
L 100.84248 63.00059 
Q 100.84248 61.909967 97.89624 61.909967 
L 92.74032 61.909967 
Q 89.79408 61.909967 89.79408 63.00059 
L 89.79408 67.635738 
Q 89.79408 68.726361 92.74032 68.726361 
z
" clip-path="url(#p6e1d85b4a4)" style="fill: #c9a227; stroke: #1a1a1a; stroke-width: 0.8; stroke-linejoin: miter"/>
   </g>
   <g id="patch_23">
    <path d="M 92.74032 100.627082 
L 97.89624 100.627082 
Q 100.84248 100.627082 100.84248 99.536459 
L 100.84248 94.901311 
Q 100.84248 93.810689 97.89624 93.810689 
L 92.74032 93.810689 
Q 89.79408 93.810689 89.79408 94.901311 
L 89.79408 99.536459 
Q 89.79408 100.627082 92.74032 100.627082 
z
" clip-path="url(#p6e1d85b4a4)" style="fill: #c9a227; stroke: #1a1a1a; stroke-width: 0.8; stroke-linejoin: miter"/>
   </g>
   <g id="patch_24">
    <path d="M 195.85872 66.954098 
L 328.43952 66.954098 
L 328.43952 64.772852 
L 195.85872 64.772852 
z
" clip-path="url(#p6e1d85b4a4)" style="fill: #cccccc; stroke: #1a1a1a; stroke-width: 1.1; stroke-linejoin: miter"/>
   </g>
   <g id="patch_25">
    <path d="M 195.85872 69.135344 
L 328.43952 69.135344 
L 328.43952 66.954098 
L 195.85872 66.954098 
z
" clip-path="url(#p6e1d85b4a4)" style="fill: #cccccc; stroke: #1a1a1a; stroke-width: 1.1; stroke-linejoin: miter"/>
   </g>
   <g id="patch_26">
    <path d="M 35.28864 78.541967 
L 42.65424 78.541967 
L 42.65424 74.452131 
L 35.28864 74.452131 
z
" clip-path="url(#p6e1d85b4a4)" style="fill: url(#h3061a4af5a); stroke: #1a1a1a; stroke-linejoin: miter"/>
   </g>
   <g id="patch_27">
    <path d="M 35.28864 88.084918 
L 42.65424 88.084918 
L 42.65424 83.995082 
L 35.28864 83.995082 
z
" clip-path="url(#p6e1d85b4a4)" style="fill: url(#h3061a4af5a); stroke: #1a1a1a; stroke-linejoin: miter"/>
   </g>
   <g id="patch_28">
    <path d="M 91.2672 78.541967 
L 98.6328 78.541967 
L 98.6328 74.452131 
L 91.2672 74.452131 
z
" clip-path="url(#p6e1d85b4a4)" style="fill: url(#h3061a4af5a); stroke: #1a1a1a; stroke-linejoin: miter"/>
   </g>
   <g id="patch_29">
    <path d="M 91.2672 88.084918 
L 98.6328 88.084918 
L 98.6328 83.995082 
L 91.2672 83.995082 
z
" clip-path="url(#p6e1d85b4a4)" style="fill: url(#h3061a4af5a); stroke: #1a1a1a; stroke-linejoin: miter"/>
   </g>
   <g id="patch_30">
    <path d="M 112.62744 87.539607 
L 115.94196 87.539607 
L 115.94196 74.997443 
L 112.62744 74.997443 
z
" clip-path="url(#p6e1d85b4a4)" style="fill: #9e9e9e; stroke: #1a1a1a; stroke-width: 0.8; stroke-linejoin: miter"/>
   </g>
   <g id="patch_31">
    <path d="M 119.99304 87.539607 
L 123.30756 87.539607 
L 123.30756 74.997443 
L 119.99304 74.997443 
z
" clip-path="url(#p6e1d85b4a4)" style="fill: #9e9e9e; stroke: #1a1a1a; stroke-width: 0.8; stroke-linejoin: miter"/>
   </g>
   <g id="patch_32">
    <path d="M 202.48776 73.22518 
L 205.80228 73.22518 
L 205.80228 60.683016 
L 202.48776 60.683016 
z
" clip-path="url(#p6e1d85b4a4)" style="fill: #9e9e9e; stroke: #1a1a1a; stroke-width: 0.8; stroke-linejoin: miter"/>
   </g>
   <g id="patch_33">
    <path d="M 209.85336 73.22518 
L 213.16788 73.22518 
L 213.16788 60.683016 
L 209.85336 60.683016 
z
" clip-path="url(#p6e1d85b4a4)" style="fill: #9e9e9e; stroke: #1a1a1a; stroke-width: 0.8; stroke-linejoin: miter"/>
   </g>
   <g id="patch_34">
    <path d="M 232.68672 64.227541 
L 240.05232 64.227541 
L 240.05232 60.137705 
L 232.68672 60.137705 
z
" clip-path="url(#p6e1d85b4a4)" style="fill: url(#h3061a4af5a); stroke: #1a1a1a; stroke-linejoin: miter"/>
   </g>
   <g id="patch_35">
    <path d="M 232.68672 73.770492 
L 240.05232 73.770492 
L 240.05232 69.680656 
L 232.68672 69.680656 
z
" clip-path="url(#p6e1d85b4a4)" style="fill: url(#h3061a4af5a); stroke: #1a1a1a; stroke-linejoin: miter"/>
   </g>
   <g id="patch_36">
    <path d="M 273.93408 64.227541 
L 281.29968 64.227541 
L 281.29968 60.137705 
L 273.93408 60.137705 
z
" clip-path="url(#p6e1d85b4a4)" style="fill: url(#h3061a4af5a); stroke: #1a1a1a; stroke-linejoin: miter"/>
   </g>
   <g id="patch_37">
    <path d="M 273.93408 73.770492 
L 281.29968 73.770492 
L 281.29968 69.680656 
L 273.93408 69.680656 
z
" clip-path="url(#p6e1d85b4a4)" style="fill: url(#h3061a4af5a); stroke: #1a1a1a; stroke-linejoin: miter"/>
   </g>
   <g id="patch_38">
    <path d="M 305.60616 64.772852 
L 328.43952 48.95882 
L 334.332 52.230689 
L 312.97176 65.318164 
z
" clip-path="url(#p6e1d85b4a4)" style="fill: #1f4e79; stroke: #1a1a1a; stroke-width: 0.8; stroke-linejoin: miter"/>
   </g>
   <g id="patch_39">
    <path d="M 304.8696 65.59082 
L 322.54704 57.411148 
L 328.43952 60.683016 
L 310.02552 65.999803 
z
" clip-path="url(#p6e1d85b4a4)" style="fill: #1f4e79; opacity: 0.75; stroke: #1a1a1a; stroke-width: 0.8; stroke-linejoin: miter"/>
   </g>
   <g id="patch_40">
    <path d="M 305.60616 69.135344 
L 328.43952 84.949377 
L 334.332 81.677508 
L 312.97176 68.590033 
z
" clip-path="url(#p6e1d85b4a4)" style="fill: #1f4e79; stroke: #1a1a1a; stroke-width: 0.8; stroke-linejoin: miter"/>
   </g>
   <g id="patch_41">
    <path d="M 304.8696 68.317377 
L 322.54704 76.497049 
L 328.43952 73.22518 
L 310.02552 67.908393 
z
" clip-path="url(#p6e1d85b4a4)" style="fill: #1f4e79; opacity: 0.75; stroke: #1a1a1a; stroke-width: 0.8; stroke-linejoin: miter"/>
   </g>
   <g id="text_6">
    <text style="font-style: italic; font-size: 6.2px; font-family: 'Times New Roman', 'DejaVu Serif', serif; text-anchor: middle; fill: #4c4c4c" x="175.9716" y="113.962068" transform="rotate(-0 175.9716 113.962068)">common baseplate</text>
   </g>
   <g id="text_7">
    <text style="font-weight: 700; font-size: 6.9px; font-family: 'Times New Roman', 'DejaVu Serif', serif; text-anchor: middle" x="170.4474" y="141.116459" transform="rotate(-0 170.4474 141.116459)">lubrication skid</text>
   </g>
   <g id="text_8">
    <text style="font-size: 6.1px; font-family: 'Times New Roman', 'DejaVu Serif', serif; text-anchor: middle; fill: #595959" x="170.4474" y="147.114885" transform="rotate(-0 170.4474 147.114885)">tank  ·  pump  ·  cooler</text>
   </g>
   <g id="text_9">
    <text style="font-weight: 700; font-size: 7.6px; font-family: 'Times New Roman', 'DejaVu Serif', serif; text-anchor: middle" x="66.96072" y="25.23777" transform="rotate(-0 66.96072 25.23777)">motor</text>
   </g>
   <g id="text_10">
    <text style="font-size: 6.4px; font-family: 'Times New Roman', 'DejaVu Serif', serif; text-anchor: middle; fill: #4c4c4c" x="66.96072" y="30.690885" transform="rotate(-0 66.96072 30.690885)">1500 r/min</text>
   </g>
   <g id="text_11">
    <text style="font-weight: 700; font-size: 7.6px; font-family: 'Times New Roman', 'DejaVu Serif', serif; text-anchor: middle" x="166.39632" y="25.23777" transform="rotate(-0 166.39632 25.23777)">gearbox</text>
   </g>
   <g id="text_12">
    <text style="font-size: 6.4px; font-family: 'Times New Roman', 'DejaVu Serif', serif; text-anchor: middle; fill: #4c4c4c" x="166.39632" y="30.690885" transform="rotate(-0 166.39632 30.690885)">step-up  × 20</text>
   </g>
   <g id="text_13">
    <text style="font-style: italic; font-size: 6.2px; font-family: 'Times New Roman', 'DejaVu Serif', serif; fill: #808080" transform="translate(156.311633 70.068651)">sealed</text>
    <text style="font-style: italic; font-size: 6.2px; font-family: 'Times New Roman', 'DejaVu Serif', serif; fill: #808080" transform="translate(156.248664 78.649354)">casing</text>
   </g>
   <g id="text_14">
    <text style="font-weight: 700; font-size: 7.6px; font-family: 'Times New Roman', 'DejaVu Serif', serif; text-anchor: middle" x="256.9932" y="25.23777" transform="rotate(-0 256.9932 25.23777)">compressor</text>
   </g>
   <g id="text_15">
    <text style="font-size: 6.4px; font-family: 'Times New Roman', 'DejaVu Serif', serif; text-anchor: middle; fill: #4c4c4c" x="256.9932" y="30.690885" transform="rotate(-0 256.9932 30.690885)">30 000 r/min</text>
   </g>
   <g id="patch_42">
    <path d="M 117.78336 50.537763 
Q 117.78336 61.768852 117.78336 72.999942 
" style="fill: none; stroke: #808080; stroke-width: 0.6; stroke-linecap: round"/>
   </g>
   <g id="text_16">
    <text style="font-size: 6.2px; font-family: 'Times New Roman', 'DejaVu Serif', serif; text-anchor: middle; fill: #474747" x="117.78336" y="47.05023" transform="rotate(-0 117.78336 47.05023)">coupling</text>
   </g>
   <g id="patch_43">
    <path d="M 208.75841 44.815221 
Q 208.271124 51.751571 207.783838 58.68792 
" style="fill: none; stroke: #808080; stroke-width: 0.6; stroke-linecap: round"/>
   </g>
   <g id="text_17">
    <text style="font-size: 6.2px; font-family: 'Times New Roman', 'DejaVu Serif', serif; text-anchor: middle; fill: #474747" x="209.1168" y="41.324459" transform="rotate(-0 209.1168 41.324459)">coupling</text>
   </g>
   <g id="patch_44">
    <path d="M 41.399427 50.542869 
Q 40.286352 61.503713 39.173278 72.464557 
" style="fill: none; stroke: #808080; stroke-width: 0.6; stroke-linecap: round"/>
   </g>
   <g id="text_18">
    <text style="font-size: 6.2px; font-family: 'Times New Roman', 'DejaVu Serif', serif; text-anchor: middle; fill: #474747" x="41.91768" y="47.05023" transform="rotate(-0 41.91768 47.05023)">rolling bearings</text>
   </g>
  </g>
  <g id="axes_2">
   <g id="line2d_6">
    <path d="M 23.1354 279.82214 
L 336.1734 279.82214 
" clip-path="url(#p585cd173c3)" style="fill: none; stroke-dasharray: 7.7,2.1,1.12,2.1; stroke-dashoffset: 0; stroke: #404040; stroke-width: 0.7"/>
   </g>
   <g id="line2d_7">
    <path d="M 37.8666 279.82214 
L 320.33736 279.82214 
" clip-path="url(#p585cd173c3)" style="fill: none; stroke-dasharray: 7.7,2.1,1.12,2.1; stroke-dashoffset: 0; stroke: #404040; stroke-width: 0.7"/>
   </g>
   <g id="text_19">
    <text style="font-weight: 700; font-size: 9.4px; font-family: 'Times New Roman', 'DejaVu Serif', serif; text-anchor: start; fill: #1a1a1a" x="6.5628" y="212.520558" transform="rotate(-0 6.5628 212.520558)">(b)   Integrated direct drive,  axial section</text>
   </g>
   <g id="patch_45">
    <path d="M 50.01984 273.246698 
L 50.01984 232.440279 
L 276.14376 232.440279 
L 276.14376 273.246698 
L 266.56848 273.246698 
L 266.56848 237.468558 
L 59.59512 237.468558 
L 59.59512 273.246698 
z
" clip-path="url(#p585cd173c3)" style="fill: url(#h943d0ae6f2); stroke: #1a1a1a; stroke-width: 1.15; stroke-linejoin: miter"/>
   </g>
   <g id="patch_46">
    <path d="M 50.01984 286.397581 
L 50.01984 327.204 
L 276.14376 327.204 
L 276.14376 286.397581 
L 266.56848 286.397581 
L 266.56848 322.175721 
L 59.59512 322.175721 
L 59.59512 286.397581 
z
" clip-path="url(#p585cd173c3)" style="fill: url(#h943d0ae6f2); stroke: #1a1a1a; stroke-width: 1.15; stroke-linejoin: miter"/>
   </g>
   <g id="patch_47">
    <path d="M 328.494947 349.444465 
Q 190.704243 349.444465 52.91354 349.444465 
" style="fill: none; stroke: #666666; stroke-width: 0.8; stroke-linecap: round"/>
    <path d="M 324.894947 347.644465 
L 328.494947 349.444465 
L 324.894947 351.244465 
" style="fill: none; stroke: #666666; stroke-width: 0.8; stroke-linecap: round"/>
    <path d="M 56.51354 351.244465 
L 52.91354 349.444465 
L 56.51354 347.644465 
" style="fill: none; stroke: #666666; stroke-width: 0.8; stroke-linecap: round"/>
   </g>
   <g id="text_20">
    <text style="font-weight: 700; font-size: 7px; font-family: 'Times New Roman', 'DejaVu Serif', serif; text-anchor: middle; fill: #4a7c1f" x="190.7028" y="362.595349" transform="rotate(-0 190.7028 362.595349)">one machine: no gearbox, no couplings, no oil system</text>
   </g>
   <g id="patch_48">
    <path d="M 119.99304 241.916651 
L 211.32648 241.916651 
L 211.32648 237.468558 
L 119.99304 237.468558 
z
" clip-path="url(#p585cd173c3)" style="fill: #d7e4f0; stroke: #1a1a1a; stroke-width: 0.8; stroke-linejoin: miter"/>
   </g>
   <g id="patch_49">
    <path d="M 119.99304 322.175721 
L 211.32648 322.175721 
L 211.32648 317.727628 
L 119.99304 317.727628 
z
" clip-path="url(#p585cd173c3)" style="fill: #d7e4f0; stroke: #1a1a1a; stroke-width: 0.8; stroke-linejoin: miter"/>
   </g>
   <g id="patch_50">
    <path d="M 37.8666 279.82214 
L 320.33736 279.82214 
L 320.33736 274.020279 
L 37.8666 274.020279 
z
" clip-path="url(#p585cd173c3)" style="fill: #cccccc; stroke: #1a1a1a; stroke-width: 1.15; stroke-linejoin: miter"/>
   </g>
   <g id="patch_51">
    <path d="M 126.62208 274.020279 
L 204.69744 274.020279 
L 204.69744 258.16186 
L 126.62208 258.16186 
z
" clip-path="url(#p585cd173c3)" style="fill: #a8a8a8; stroke: #1a1a1a; stroke-width: 1.15; stroke-linejoin: miter"/>
   </g>
   <g id="patch_52">
    <path d="M 124.4124 255.841116 
L 206.90712 255.841116 
L 206.90712 241.916651 
L 124.4124 241.916651 
z
" clip-path="url(#p585cd173c3)" style="fill: url(#h2ff06d6fd0); stroke: #1a1a1a; stroke-width: 1.15; stroke-linejoin: miter"/>
   </g>
   <g id="patch_53">
    <path d="M 116.31024 254.293953 
L 121.46616 254.293953 
Q 125.14896 254.293953 125.14896 252.36 
L 125.14896 245.397767 
Q 125.14896 243.463814 121.46616 243.463814 
L 116.31024 243.463814 
Q 112.62744 243.463814 112.62744 245.397767 
L 112.62744 252.36 
Q 112.62744 254.293953 116.31024 254.293953 
z
" clip-path="url(#p585cd173c3)" style="fill: #c9a227; stroke: #1a1a1a; stroke-width: 0.8; stroke-linejoin: miter"/>
   </g>
   <g id="patch_54">
    <path d="M 209.85336 254.293953 
L 215.00928 254.293953 
Q 218.69208 254.293953 218.69208 252.36 
L 218.69208 245.397767 
Q 218.69208 243.463814 215.00928 243.463814 
L 209.85336 243.463814 
Q 206.17056 243.463814 206.17056 245.397767 
L 206.17056 252.36 
Q 206.17056 254.293953 209.85336 254.293953 
z
" clip-path="url(#p585cd173c3)" style="fill: #c9a227; stroke: #1a1a1a; stroke-width: 0.8; stroke-linejoin: miter"/>
   </g>
   <g id="patch_55">
    <path d="M 37.8666 285.624 
L 320.33736 285.624 
L 320.33736 279.82214 
L 37.8666 279.82214 
z
" clip-path="url(#p585cd173c3)" style="fill: #cccccc; stroke: #1a1a1a; stroke-width: 1.15; stroke-linejoin: miter"/>
   </g>
   <g id="patch_56">
    <path d="M 126.62208 301.482419 
L 204.69744 301.482419 
L 204.69744 285.624 
L 126.62208 285.624 
z
" clip-path="url(#p585cd173c3)" style="fill: #a8a8a8; stroke: #1a1a1a; stroke-width: 1.15; stroke-linejoin: miter"/>
   </g>
   <g id="patch_57">
    <path d="M 124.4124 317.727628 
L 206.90712 317.727628 
L 206.90712 303.803163 
L 124.4124 303.803163 
z
" clip-path="url(#p585cd173c3)" style="fill: url(#h2ff06d6fd0); stroke: #1a1a1a; stroke-width: 1.15; stroke-linejoin: miter"/>
   </g>
   <g id="patch_58">
    <path d="M 116.31024 316.180465 
L 121.46616 316.180465 
Q 125.14896 316.180465 125.14896 314.246512 
L 125.14896 307.284279 
Q 125.14896 305.350326 121.46616 305.350326 
L 116.31024 305.350326 
Q 112.62744 305.350326 112.62744 307.284279 
L 112.62744 314.246512 
Q 112.62744 316.180465 116.31024 316.180465 
z
" clip-path="url(#p585cd173c3)" style="fill: #c9a227; stroke: #1a1a1a; stroke-width: 0.8; stroke-linejoin: miter"/>
   </g>
   <g id="patch_59">
    <path d="M 209.85336 316.180465 
L 215.00928 316.180465 
Q 218.69208 316.180465 218.69208 314.246512 
L 218.69208 307.284279 
Q 218.69208 305.350326 215.00928 305.350326 
L 209.85336 305.350326 
Q 206.17056 305.350326 206.17056 307.284279 
L 206.17056 314.246512 
Q 206.17056 316.180465 209.85336 316.180465 
z
" clip-path="url(#p585cd173c3)" style="fill: #c9a227; stroke: #1a1a1a; stroke-width: 0.8; stroke-linejoin: miter"/>
   </g>
   <g id="patch_60">
    <path d="M 69.90696 274.020279 
L 99.36936 274.020279 
L 99.36936 265.510884 
L 69.90696 265.510884 
z
" clip-path="url(#p585cd173c3)" style="fill: #e0e0e0; stroke: #1a1a1a; stroke-linejoin: miter"/>
   </g>
   <g id="patch_61">
    <path d="M 67.69728 263.19014 
L 101.57904 263.19014 
L 101.57904 247.331721 
L 67.69728 247.331721 
z
" clip-path="url(#p585cd173c3)" style="fill: url(#h3061a4af5a); stroke: #1a1a1a; stroke-width: 1.15; stroke-linejoin: miter"/>
   </g>
   <g id="patch_62">
    <path d="M 69.90696 294.133395 
L 99.36936 294.133395 
L 99.36936 285.624 
L 69.90696 285.624 
z
" clip-path="url(#p585cd173c3)" style="fill: #e0e0e0; stroke: #1a1a1a; stroke-linejoin: miter"/>
   </g>
   <g id="patch_63">
    <path d="M 67.69728 312.312558 
L 101.57904 312.312558 
L 101.57904 296.45414 
L 67.69728 296.45414 
z
" clip-path="url(#p585cd173c3)" style="fill: url(#h3061a4af5a); stroke: #1a1a1a; stroke-width: 1.15; stroke-linejoin: miter"/>
   </g>
   <g id="patch_64">
    <path d="M 230.47704 274.020279 
L 259.93944 274.020279 
L 259.93944 265.510884 
L 230.47704 265.510884 
z
" clip-path="url(#p585cd173c3)" style="fill: #e0e0e0; stroke: #1a1a1a; stroke-linejoin: miter"/>
   </g>
   <g id="patch_65">
    <path d="M 228.26736 263.19014 
L 262.14912 263.19014 
L 262.14912 247.331721 
L 228.26736 247.331721 
z
" clip-path="url(#p585cd173c3)" style="fill: url(#h3061a4af5a); stroke: #1a1a1a; stroke-width: 1.15; stroke-linejoin: miter"/>
   </g>
   <g id="patch_66">
    <path d="M 230.47704 294.133395 
L 259.93944 294.133395 
L 259.93944 285.624 
L 230.47704 285.624 
z
" clip-path="url(#p585cd173c3)" style="fill: #e0e0e0; stroke: #1a1a1a; stroke-linejoin: miter"/>
   </g>
   <g id="patch_67">
    <path d="M 228.26736 312.312558 
L 262.14912 312.312558 
L 262.14912 296.45414 
L 228.26736 296.45414 
z
" clip-path="url(#p585cd173c3)" style="fill: url(#h3061a4af5a); stroke: #1a1a1a; stroke-width: 1.15; stroke-linejoin: miter"/>
   </g>
   <g id="patch_68">
    <path d="M 52.96608 273.633488 
L 60.33168 273.633488 
L 60.33168 268.992 
L 52.96608 268.992 
z
" clip-path="url(#p585cd173c3)" style="fill: #a6350f; opacity: 0.55; stroke: #1a1a1a; stroke-width: 0.7; stroke-linejoin: miter"/>
   </g>
   <g id="patch_69">
    <path d="M 52.96608 290.652279 
L 60.33168 290.652279 
L 60.33168 286.010791 
L 52.96608 286.010791 
z
" clip-path="url(#p585cd173c3)" style="fill: #a6350f; opacity: 0.55; stroke: #1a1a1a; stroke-width: 0.7; stroke-linejoin: miter"/>
   </g>
   <g id="patch_70">
    <path d="M 265.83192 273.633488 
L 273.19752 273.633488 
L 273.19752 268.992 
L 265.83192 268.992 
z
" clip-path="url(#p585cd173c3)" style="fill: #a6350f; opacity: 0.55; stroke: #1a1a1a; stroke-width: 0.7; stroke-linejoin: miter"/>
   </g>
   <g id="patch_71">
    <path d="M 265.83192 290.652279 
L 273.19752 290.652279 
L 273.19752 286.010791 
L 265.83192 286.010791 
z
" clip-path="url(#p585cd173c3)" style="fill: #a6350f; opacity: 0.55; stroke: #1a1a1a; stroke-width: 0.7; stroke-linejoin: miter"/>
   </g>
   <g id="patch_72">
    <path d="M 297.504 274.020279 
L 324.75672 248.492093 
L 330.6492 253.520372 
L 307.07928 274.79386 
z
" clip-path="url(#p585cd173c3)" style="fill: #1f4e79; stroke: #1a1a1a; stroke-width: 0.8; stroke-linejoin: miter"/>
   </g>
   <g id="patch_73">
    <path d="M 296.76744 275.567442 
L 318.12768 262.416558 
L 324.02016 267.444837 
L 304.13304 276.341023 
z
" clip-path="url(#p585cd173c3)" style="fill: #1f4e79; opacity: 0.75; stroke: #1a1a1a; stroke-width: 0.8; stroke-linejoin: miter"/>
   </g>
   <g id="patch_74">
    <path d="M 297.504 285.624 
L 324.75672 311.152186 
L 330.6492 306.123907 
L 307.07928 284.850419 
z
" clip-path="url(#p585cd173c3)" style="fill: #1f4e79; stroke: #1a1a1a; stroke-width: 0.8; stroke-linejoin: miter"/>
   </g>
   <g id="patch_75">
    <path d="M 296.76744 284.076837 
L 318.12768 297.227721 
L 324.02016 292.199442 
L 304.13304 283.303256 
z
" clip-path="url(#p585cd173c3)" style="fill: #1f4e79; opacity: 0.75; stroke: #1a1a1a; stroke-width: 0.8; stroke-linejoin: miter"/>
   </g>
   <g id="text_21">
    <text style="font-weight: 700; font-size: 6.6px; font-family: 'Times New Roman', 'DejaVu Serif', serif; text-anchor: middle; fill: #ffffff" x="165.65976" y="267.805781" transform="rotate(-0 165.65976 267.805781)">solid rotor</text>
   </g>
   <g id="text_22">
    <text style="font-size: 6.4px; font-family: 'Times New Roman', 'DejaVu Serif', serif; text-anchor: middle" x="165.65976" y="250.541384" transform="rotate(-0 165.65976 250.541384)">stator core</text>
   </g>
   <g id="patch_76">
    <path d="M 182.933495 228.776148 
Q 180.07718 232.342456 177.220866 235.908763 
" style="fill: none; stroke: #808080; stroke-width: 0.6; stroke-linecap: round"/>
   </g>
   <g id="text_23">
    <text style="font-size: 6.2px; font-family: 'Times New Roman', 'DejaVu Serif', serif; text-anchor: middle; fill: #474747" x="187.02" y="225.284651" transform="rotate(-0 187.02 225.284651)">cooling jacket</text>
   </g>
   <g id="patch_77">
    <path d="M 93.414571 228.772386 
Q 104.779434 236.706346 116.144297 244.640307 
" style="fill: none; stroke: #808080; stroke-width: 0.6; stroke-linecap: round"/>
   </g>
   <g id="text_24">
    <text style="font-size: 6.2px; font-family: 'Times New Roman', 'DejaVu Serif', serif; text-anchor: middle; fill: #474747" x="86.11128" y="225.284651" transform="rotate(-0 86.11128 225.284651)">end winding</text>
   </g>
   <g id="patch_78">
    <path d="M 315.53666 229.958754 
Q 316.735545 242.292659 317.934429 254.626565 
" style="fill: none; stroke: #808080; stroke-width: 0.6; stroke-linecap: round"/>
   </g>
   <g id="text_25">
    <text style="font-size: 6.2px; font-family: 'Times New Roman', 'DejaVu Serif', serif; fill: #474747" transform="translate(279.639959 207.924651)">impeller, overhung on</text>
    <text style="font-size: 6.2px; font-family: 'Times New Roman', 'DejaVu Serif', serif; fill: #474747" transform="translate(277.139616 216.871057)">the shaft end, outboard</text>
    <text style="font-size: 6.2px; font-family: 'Times New Roman', 'DejaVu Serif', serif; fill: #474747" transform="translate(276.000366 225.284651)">of the drive-end bearing</text>
   </g>
   <g id="patch_79">
    <path d="M 37.474988 335.384012 
Q 46.668134 313.936861 55.861281 292.489709 
" style="fill: none; stroke: #808080; stroke-width: 0.6; stroke-linecap: round"/>
   </g>
   <g id="text_26">
    <text style="font-size: 6.2px; font-family: 'Times New Roman', 'DejaVu Serif', serif; text-anchor: middle; fill: #474747" x="35.28864" y="342.095442" transform="rotate(-0 35.28864 342.095442)">touchdown bearing</text>
   </g>
   <g id="patch_80">
    <path d="M 84.63816 329.042274 
Q 84.63816 321.676053 84.63816 314.309831 
" style="fill: none; stroke: #a6350f; stroke-width: 0.7; stroke-linecap: round"/>
   </g>
   <g id="text_27">
    <text style="font-size: 6.4px; font-family: 'Times New Roman', 'DejaVu Serif', serif; text-anchor: middle; fill: #a6350f" x="84.63816" y="335.906791" transform="rotate(-0 84.63816 335.906791)">radial AMB</text>
   </g>
   <g id="patch_81">
    <path d="M 245.20824 329.042274 
Q 245.20824 321.676053 245.20824 314.309831 
" style="fill: none; stroke: #a6350f; stroke-width: 0.7; stroke-linecap: round"/>
   </g>
   <g id="text_28">
    <text style="font-size: 6.4px; font-family: 'Times New Roman', 'DejaVu Serif', serif; text-anchor: middle; fill: #a6350f" x="245.20824" y="335.906791" transform="rotate(-0 245.20824 335.906791)">radial AMB</text>
   </g>
  </g>
 </g>
 <defs>
  <clipPath id="p6e1d85b4a4">
   <rect x="2.88" y="2.88" width="368.28" height="166.32"/>
  </clipPath>
  <clipPath id="p585cd173c3">
   <rect x="2.88" y="202.464" width="368.28" height="166.32"/>
  </clipPath>
 </defs>
 <defs>
  <pattern id="h943d0ae6f2" patternUnits="userSpaceOnUse" x="0" y="0" width="72" height="72">
   <rect x="0" y="0" width="73" height="73" fill="#f4f4f1"/>
   <path d="M -36 36 
L 36 -36 
M -30 42 
L 42 -30 
M -24 48 
L 48 -24 
M -18 54 
L 54 -18 
M -12 60 
L 60 -12 
M -6 66 
L 66 -6 
M 0 72 
L 72 0 
M 6 78 
L 78 6 
M 12 84 
L 84 12 
M 18 90 
L 90 18 
M 24 96 
L 96 24 
M 30 102 
L 102 30 
M 36 108 
L 108 36 
M -36 36 
L 36 108 
M -30 30 
L 42 102 
M -24 24 
L 48 96 
M -18 18 
L 54 90 
M -12 12 
L 60 84 
M -6 6 
L 66 78 
M 0 0 
L 72 72 
M 6 -6 
L 78 66 
M 12 -12 
L 84 60 
M 18 -18 
L 90 54 
M 24 -24 
L 96 48 
M 30 -30 
L 102 42 
M 36 -36 
L 108 36 
" style="fill: #1a1a1a; stroke: #1a1a1a; stroke-width: 0.45; stroke-linecap: butt; stroke-linejoin: miter"/>
  </pattern>
  <pattern id="hbbb8569fb5" patternUnits="userSpaceOnUse" x="0" y="0" width="72" height="72">
   <rect x="0" y="0" width="73" height="73" fill="#f0efe9"/>
   <path d="M -36 36 
L 36 -36 
M -30 42 
L 42 -30 
M -24 48 
L 48 -24 
M -18 54 
L 54 -18 
M -12 60 
L 60 -12 
M -6 66 
L 66 -6 
M 0 72 
L 72 0 
M 6 78 
L 78 6 
M 12 84 
L 84 12 
M 18 90 
L 90 18 
M 24 96 
L 96 24 
M 30 102 
L 102 30 
M 36 108 
L 108 36 
M -36 36 
L 36 108 
M -30 30 
L 42 102 
M -24 24 
L 48 96 
M -18 18 
L 54 90 
M -12 12 
L 60 84 
M -6 6 
L 66 78 
M 0 0 
L 72 72 
M 6 -6 
L 78 66 
M 12 -12 
L 84 60 
M 18 -18 
L 90 54 
M 24 -24 
L 96 48 
M 30 -30 
L 102 42 
M 36 -36 
L 108 36 
" style="fill: #1a1a1a; stroke: #1a1a1a; stroke-width: 0.45; stroke-linecap: butt; stroke-linejoin: miter"/>
  </pattern>
  <pattern id="h2ff06d6fd0" patternUnits="userSpaceOnUse" x="0" y="0" width="72" height="72">
   <rect x="0" y="0" width="73" height="73" fill="#ffffff"/>
   <path d="M -36 36 
L 36 -36 
M -32 40 
L 40 -32 
M -28 44 
L 44 -28 
M -24 48 
L 48 -24 
M -20 52 
L 52 -20 
M -16 56 
L 56 -16 
M -12 60 
L 60 -12 
M -8 64 
L 64 -8 
M -4 68 
L 68 -4 
M 0 72 
L 72 0 
M 4 76 
L 76 4 
M 8 80 
L 80 8 
M 12 84 
L 84 12 
M 16 88 
L 88 16 
M 20 92 
L 92 20 
M 24 96 
L 96 24 
M 28 100 
L 100 28 
M 32 104 
L 104 32 
M 36 108 
L 108 36 
" style="fill: #1a1a1a; stroke: #1a1a1a; stroke-width: 0.45; stroke-linecap: butt; stroke-linejoin: miter"/>
  </pattern>
  <pattern id="h3061a4af5a" patternUnits="userSpaceOnUse" x="0" y="0" width="72" height="72">
   <rect x="0" y="0" width="73" height="73" fill="#ffffff"/>
   <path d="M -36 36 
L 36 108 
M -32 32 
L 40 104 
M -28 28 
L 44 100 
M -24 24 
L 48 96 
M -20 20 
L 52 92 
M -16 16 
L 56 88 
M -12 12 
L 60 84 
M -8 8 
L 64 80 
M -4 4 
L 68 76 
M 0 0 
L 72 72 
M 4 -4 
L 76 68 
M 8 -8 
L 80 64 
M 12 -12 
L 84 60 
M 16 -16 
L 88 56 
M 20 -20 
L 92 52 
M 24 -24 
L 96 48 
M 28 -28 
L 100 44 
M 32 -32 
L 104 40 
M 36 -36 
L 108 36 
" style="fill: #1a1a1a; stroke: #1a1a1a; stroke-width: 0.45; stroke-linecap: butt; stroke-linejoin: miter"/>
  </pattern>
 </defs>
</svg>
